# xmcd
#
# Track frame offsets: 
#        150
#        18110
#        36925
#        55162
#        65685
#        97627
#        126622
#        143097
#        156572
#        170015
#        186490
#        213242
#        228547
#        241355
#        250855
#        262490
#        270215
#        301067
#
# Disc length: 4336 seconds
#
# Revision: 3
# Processed by: cddbd v1.5.2PL0 Copyright (c) Steve Scherf et al.
# Submitted via: ExactAudioCopy v0.99pb4
#
DISCID=0610ee12
DTITLE=Various Artist - American Folk Blues Festival '83
DYEAR=1992
DGENRE=Blues
TTITLE0=James "Sparky" Rucker - Rock Me Baby
TTITLE1=James "Sparky" Rucker - Crossroads
TTITLE2=Larry Johnson - Midnight Hours
TTITLE3=Larry Johnson - That's The Wrong Woman
TTITLE4=Louisiana Red and His Chicago Blues Friends - Red's Tribute to M
TTITLE4=uddy Waters
TTITLE5=Louisiana Red and His Chicago Blues Friends - Boy From Black Bay
TTITLE5=ou
TTITLE6=Louisiana Red and His Chicago Blues Friends - She Is Worse
TTITLE7=Lonnie Pitchford - One-String Boogie
TTITLE8=Lonnie Pitchford - My Baby Walked Away
TTITLE9=Lonnie Pitchford - C.C. Rider
TTITLE10=Louisiana Red and Carey Bell - When I Lay Down to Rest
TTITLE11=Louisiana Red and Carey Bell - Who's Louisiana Red
TTITLE12=Louisiana Red and Carey Bell - Reagan Is for the Rich Man
TTITLE13=Lovie Lee and Band - Flip, Flop and Fly
TTITLE14=Lovie Lee and Band - Mind to Ramble
TTITLE15=Lovie Lee and Band - Iko Iko
TTITLE16=Queen Sylvia and Friends - I Love You
TTITLE17=Queen Sylvia and Friends - Baby, What Do I Do
EXTD=
EXTT0=
EXTT1=
EXTT2=
EXTT3=
EXTT4=
EXTT5=
EXTT6=
EXTT7=
EXTT8=
EXTT9=
EXTT10=
EXTT11=
EXTT12=
EXTT13=
EXTT14=
EXTT15=
EXTT16=
EXTT17=
PLAYORDER=
